<svg xmlns="http://www.w3.org/2000/svg" width="71" height="34" viewBox="0 0 71 34" fill="none"><g clip-path="url(#clip0_141_4467)"><path fill-rule="evenodd" clip-rule="evenodd" d="M8.06274 0L8.06392 0.00361374L7.73558 1.00456H6.66995L7.5317 1.62492L7.20217 2.62948L8.06392 2.00912L8.92567 2.62948L8.59614 1.62492L9.45789 1.00456H8.39226L8.06392 0.00361374L8.06511 0H8.06274ZM11.0309 7.0061C11.0309 8.63093 9.70199 9.94811 8.06275 9.94811C6.4235 9.94811 5.09464 8.63093 5.09464 7.0061C5.09464 5.38127 6.4235 4.06409 8.06275 4.06409C9.70199 4.06409 11.0309 5.38127 11.0309 7.0061ZM0.285665 8.72619C0.0829704 8.62632 -0.100759 8.89068 0.0651902 9.04459V9.04576C1.03599 9.94223 2.1111 11.1007 3.11746 12.56L3.11828 12.5611C3.44755 13.0389 5.22199 15.6134 5.86391 18.229C7.06467 23.1237 4.22932 27.8857 2.41811 30.3107C2.28653 30.4882 2.50345 30.7137 2.68718 30.5892C3.47662 30.0523 4.50313 29.5094 5.76909 29.1581C8.12082 28.5061 10.3943 28.8926 10.9242 29.063C12.3087 29.5084 13.2828 30.3052 13.8699 30.7854C14.2167 31.0691 14.4284 31.2423 14.5098 31.1673C14.645 31.0426 14.2231 30.4208 13.6507 29.5772C13.4301 29.2522 13.1872 28.8942 12.9452 28.519L12.8151 28.3174C11.5003 26.2808 10.0869 24.0913 9.78623 21.5176C9.47567 18.8552 10.2912 16.7098 10.6634 15.8639C11.8179 13.2403 13.7702 11.6189 15.2732 10.6918C15.4641 10.5743 15.3396 10.2841 15.1215 10.337C13.232 10.7999 10.6504 11.1653 7.63008 10.8469C4.53514 10.5203 2.04235 9.58976 0.285665 8.72619ZM4.40471 0.885998L4.40353 0.882385H4.4059L4.40471 0.885998ZM4.40471 0.885998L4.73305 1.88695H5.79868L4.93693 2.50731L5.26646 3.51187L4.40471 2.89151L3.54296 3.51187L3.87249 2.50731L3.01074 1.88695H4.07637L4.40471 0.885998ZM11.723 0.882385L11.7242 0.885999L11.3959 1.88695H10.3303L11.192 2.50731L10.8625 3.51187L11.7242 2.89151L12.586 3.51187L12.2565 2.50731L13.1182 1.88695H12.0526L11.7242 0.885999L11.7254 0.882385H11.723ZM14.3273 3.48848L14.3261 3.48486H14.3285L14.3273 3.48848ZM14.3273 3.48848L14.6556 4.48942H15.7213L14.8595 5.10979L15.189 6.11435L14.3273 5.49399L13.4655 6.11435L13.7951 5.10979L12.9333 4.48942H13.9989L14.3273 3.48848ZM1.79934 3.48486L1.80053 3.48848L1.47218 4.48942H0.406555L1.2683 5.10979L0.938777 6.11435L1.80052 5.49399L2.66227 6.11435L2.33275 5.10979L3.19449 4.48942H2.12887L1.80053 3.48848L1.80171 3.48486H1.79934ZM55.8643 25.5041C56.6834 25.8883 57.6234 26.081 58.6866 26.081V26.0798C59.5057 26.0798 60.224 25.987 60.8416 25.8025C61.4591 25.6181 61.9866 25.3725 62.4252 25.0658C62.6338 24.9202 63.0688 24.5971 63.492 24.073C63.5015 24.0601 63.5122 24.0472 63.5228 24.0343C64.3751 22.9815 63.6177 21.4189 62.2557 21.4248H62.2166C61.7709 21.4259 61.3454 21.6104 61.0407 21.9335C60.6863 22.3083 60.1754 22.7935 59.808 23.0473C59.4013 23.3265 58.9762 23.3253 58.7766 23.3247L58.7518 23.3246C58.1769 23.3246 57.7348 23.1472 57.4266 22.7912C57.1172 22.4352 56.9489 21.8654 56.9204 21.0828C56.9062 20.6423 56.9062 20.137 56.9204 19.5672C56.9489 18.7988 57.1172 18.229 57.4266 17.8589C57.736 17.4888 58.1769 17.3031 58.7518 17.3031C59.2378 17.3031 59.591 17.4852 59.7748 17.5804C60.1624 17.7825 60.4469 18.0562 60.6507 18.3159C61.0052 18.7671 61.5646 19.0173 62.149 18.9504C62.9412 18.8598 63.4519 18.2597 63.557 17.5804C63.7502 17.6846 63.9716 17.7437 64.2068 17.7437H64.9891V22.3952C64.9891 22.6102 65.0081 23.7699 65.954 24.704C66.8975 25.6369 68.0663 25.6533 68.2832 25.6521H69.3239C69.4164 25.6498 69.51 25.6474 69.6025 25.6463C70.373 25.6463 70.9976 25.0271 70.9976 24.2634V24.2457C70.9976 23.4891 70.3848 22.8535 69.6226 22.8617L69.6238 22.8605C69.1888 22.8652 68.8818 22.7301 68.7016 22.454C68.5238 22.1826 68.4349 21.8172 68.4349 21.3566V17.7437H69.2007C69.951 17.7437 70.5958 17.1609 70.6088 16.4172C70.6231 15.6594 70.0067 15.0402 69.2457 15.0402H68.4337L68.4302 12.8936C68.429 11.9642 67.668 11.2111 66.7304 11.2111C65.7916 11.2111 65.0318 11.9642 65.0306 12.8948C65.0306 13.6103 65.0306 14.3247 65.0294 15.0402H64.2518C63.6431 15.0402 63.1039 15.4237 62.915 15.9655C62.2662 15.3763 61.5908 15.1068 61.2292 14.9638C60.5251 14.6866 59.6776 14.5479 58.6866 14.5479C57.6234 14.5479 56.6798 14.7406 55.8536 15.1248C55.0274 15.509 54.3779 16.0683 53.9037 16.8014C53.4296 17.5346 53.1712 18.4216 53.1285 19.4603C53.1143 19.6882 53.1072 19.9761 53.1072 20.325C53.1072 20.674 53.1143 20.9618 53.1285 21.1898C53.1712 22.2155 53.4331 23.0943 53.9144 23.8275C54.3957 24.5606 55.0452 25.1199 55.8643 25.5041ZM30.3082 19.1595C30.3082 18.1162 30.1375 17.2656 29.7949 16.6088C29.4535 15.952 28.9984 15.3469 28.4318 15.0273C27.864 14.7089 27.2251 14.5491 26.5139 14.5491C25.8027 14.5491 25.1744 14.7148 24.5865 15.0473C24.1444 15.2964 23.7805 15.7158 23.4936 16.0683C23.3656 16.2258 23.1238 16.2152 23.0124 16.046C22.3924 15.1025 21.3861 14.5256 19.9933 14.5503C19.3236 14.5644 18.7901 14.7618 18.3219 15.0778C18.003 15.2929 17.7181 15.6089 17.4909 15.8608L17.4908 15.861C17.4301 15.9283 17.3735 15.991 17.3215 16.046C17.2421 16.1294 17.0987 16.0871 17.0797 15.9731C17.0382 15.7323 16.9291 15.4033 16.6482 15.1131C16.1765 14.6267 15.5755 14.6161 15.4712 14.6161C15.3621 14.6161 14.7849 14.6267 14.319 15.0884C13.852 15.5502 13.8401 16.1224 13.8401 16.2305L13.8283 24.16C13.8271 25.1105 14.6047 25.8825 15.5636 25.8825C16.5214 25.8825 17.2978 25.1141 17.299 24.1647L17.3073 19.2817C17.3073 18.8212 17.3796 18.4522 17.523 18.1738C17.6664 17.8965 17.8573 17.6956 18.0967 17.5746C18.3362 17.4524 18.578 17.3913 18.8245 17.3913C19.1114 17.3913 19.371 17.4524 19.6033 17.5746C19.8356 17.6968 20.0265 17.8965 20.177 18.1738C20.3275 18.4522 20.4022 18.8282 20.4022 19.3017V24.1953C20.4022 25.127 21.1644 25.8813 22.1044 25.8813C23.0444 25.8813 23.8054 25.1258 23.8054 24.1953V19.3017C23.8054 18.827 23.8777 18.4511 24.0211 18.1738C24.1645 17.8965 24.3554 17.6956 24.5948 17.5746C24.8342 17.4524 25.0772 17.3913 25.3226 17.3913C25.6237 17.3913 25.8892 17.4524 26.1227 17.5746C26.355 17.6968 26.54 17.8965 26.6763 18.1738C26.8126 18.4522 26.8813 18.8282 26.8813 19.3017V24.1835C26.8813 25.1211 27.6471 25.8813 28.593 25.8813C29.5389 25.8813 30.3058 25.1211 30.3058 24.1835V19.1584L30.3082 19.1595ZM31.241 16.2023C31.2422 15.2882 31.989 14.5491 32.91 14.5491L32.9088 14.5515C33.831 14.5515 34.5778 15.2917 34.5778 16.2058V16.2234C34.5778 16.261 34.624 16.2786 34.6477 16.2493C34.8729 15.9743 35.2546 15.5854 35.8283 15.2905C36.6047 14.8899 37.3088 14.8734 37.7557 14.8734C38.4385 14.8734 39.0406 14.978 39.5598 15.1883C40.0802 15.3986 40.5247 15.7064 40.8933 16.113C41.262 16.5195 41.5524 17.0141 41.7646 17.5969C41.9767 18.1797 42.0965 18.8505 42.1237 19.6095C42.1368 19.8809 42.1439 20.1312 42.1439 20.3615C42.1439 20.5918 42.1368 20.842 42.1237 21.1134C42.0965 21.8454 41.9803 22.5022 41.7752 23.085C41.5702 23.6677 41.2821 24.1624 40.9135 24.5689C40.5448 24.9754 40.0968 25.2903 39.5705 25.5135C39.0442 25.7368 38.4254 25.8484 37.7557 25.8484C37.086 25.8484 36.5016 25.7297 36.0026 25.4924C35.8117 25.4019 35.6339 25.2974 35.468 25.1775C35.174 24.966 34.7627 25.181 34.7627 25.5406L34.7642 27.7822C34.7652 29.2725 34.7663 30.763 34.7663 32.2529C34.7663 33.2187 33.9768 34.0012 33.0036 34.0012C32.0305 34.0012 31.241 33.2199 31.241 32.2553C31.2402 29.2017 31.2405 24.1578 31.2408 20.2328L31.241 16.2023ZM38.7739 22.0675C38.8901 21.742 38.9624 21.3837 38.9897 20.9901H38.9908C39.0181 20.5695 39.0181 20.15 38.9908 19.7294C38.9624 19.337 38.8913 18.9774 38.7751 18.652C38.6589 18.3277 38.4705 18.0704 38.2109 17.88C37.9513 17.6909 37.5755 17.5957 37.1239 17.5957C36.6723 17.5957 36.3108 17.6944 36.037 17.8906C35.7631 18.088 35.5652 18.3418 35.4419 18.6531C35.3186 18.9645 35.2499 19.3041 35.2368 19.6695C35.2238 19.9268 35.2167 20.1782 35.2167 20.4214C35.2167 20.6646 35.2226 20.9219 35.2368 21.1933C35.2499 21.5317 35.3257 21.8466 35.4621 22.138C35.5984 22.4305 35.8034 22.6667 36.0773 22.85C36.3499 23.0321 36.6984 23.1237 37.1227 23.1237C37.5874 23.1237 37.9501 23.0297 38.2097 22.8394C38.4693 22.6502 38.6578 22.3929 38.7739 22.0675ZM51.1383 25.9999C52.0534 25.9565 52.7575 25.1751 52.7563 24.2669V18.7518C52.7563 18.1561 52.6591 17.611 52.4683 17.1151C52.2762 16.6205 51.9858 16.1905 51.597 15.8239C51.2082 15.4573 50.6985 15.173 50.0691 14.9697C49.4397 14.7665 48.3255 14.5468 47.4376 14.5468C46.5498 14.5468 45.8659 14.7665 45.2637 14.9697C44.8714 15.1025 44.3214 15.2917 43.7868 15.7417L43.7595 15.7652C42.8598 16.5394 43.4418 18.0104 44.6343 17.9905L44.8536 17.9869C45.1796 17.9811 45.4901 17.8518 45.726 17.6286C46.0721 17.3008 46.6601 16.7615 47.4163 16.7638C47.6818 16.7638 48.572 16.8567 48.8992 17.2679C49.1042 17.5252 49.2062 17.8976 49.2062 18.3852V18.6696L46.6435 19.0561C45.3313 19.2594 44.2787 19.6424 43.4857 20.204C42.6927 20.7668 42.2968 21.5293 42.2968 22.4904C42.2968 23.0873 42.4675 23.6219 42.81 24.0965C43.1514 24.5712 43.6125 24.9472 44.1945 25.2245C44.7753 25.5018 45.4356 25.6416 46.1729 25.6416C46.7063 25.6416 47.1745 25.577 47.5775 25.4489C47.8004 25.3784 48.1986 25.248 48.6337 24.9307C48.9407 24.7075 49.1576 24.469 49.3034 24.2822C49.3188 24.2622 49.352 24.274 49.352 24.2986V24.3163C49.3532 25.275 50.1616 26.0458 51.1383 25.9988V25.9999ZM49.2489 20.9266C49.2489 21.4682 49.1564 21.9194 48.9727 22.2778C48.7878 22.6373 48.5353 22.9016 48.214 23.0708C47.8928 23.24 47.5337 23.3246 47.1377 23.3246C46.8639 23.3246 46.6186 23.2812 46.3993 23.193C46.18 23.1049 46.0022 22.9792 45.8659 22.8171C45.7296 22.6549 45.6608 22.4587 45.6608 22.2272C45.6608 21.9288 45.8078 21.668 46.1018 21.4447C46.3957 21.2215 46.8639 21.0558 47.5064 20.9466L49.2489 20.6423V20.9266Z" fill="black"></path></g><defs><clipPath id="clip0_141_4467"><rect width="71" height="34" fill="white"></rect></clipPath></defs></svg>